<svg width="32" height="26" viewBox="0 0 32 26" fill="none" xmlns="http://www.w3.org/2000/svg">
<path d="M-9.19148e-07 4.97235L1.73783 0.0599047C3.97503 0.579106 5.97253 1.43779 7.73034 2.63594C9.52809 3.87404 11.0662 5.41167 12.3446 7.24885C13.623 9.08602 14.5818 11.2427 15.221 13.7189C15.9001 16.1951 16.2397 18.9908 16.2397 22.106L15.7603 22.106C15.7603 18.9908 16.0999 16.1751 16.779 13.659C17.4582 11.1828 18.417 9.02611 19.6554 7.18894C20.9338 5.35177 22.4519 3.8341 24.2097 2.63594C26.0075 1.43779 28.025 0.559138 30.2622 -1.80205e-06L32 4.91244C29.8826 5.43164 28.005 6.27035 26.367 7.42857C24.7291 8.58679 23.3308 9.98464 22.1723 11.6221C21.0537 13.2995 20.1948 15.1567 19.5955 17.1935C19.0362 19.2704 18.7566 21.4869 18.7566 23.8433L18.7566 26L13.3034 26L13.3034 23.9032C13.3034 21.5868 13.0037 19.3902 12.4045 17.3134C11.8052 15.2366 10.9463 13.3594 9.82771 11.682C8.70911 10.0445 7.31086 8.64669 5.63296 7.48848C3.99501 6.33026 2.11735 5.49155 -9.19148e-07 4.97235Z" fill="#222222"/>
</svg>
