<svg width="200" height="200" viewBox="0 0 200 200" fill="none" xmlns="http://www.w3.org/2000/svg">
<rect width="200" height="200" rx="60" fill="#D9FF66"/>
<path d="M136.254 165C130.348 165 126.302 162.487 124.115 157.461C122.365 154.62 120.287 150.14 117.881 144.021C115.475 137.903 112.85 132.33 110.007 127.304L105.085 118.454L112.96 111.898L121.162 119.109C124.443 121.732 127.724 124.245 131.004 126.648C134.285 129.052 137.348 131.347 140.191 133.532C143.034 135.499 145.331 137.247 147.081 138.777C149.049 140.525 150.471 142.382 151.346 144.349C152.221 146.097 152.658 148.064 152.658 150.249C152.658 152.872 151.784 155.385 150.034 157.789C148.284 159.974 146.206 161.722 143.8 163.033C141.394 164.344 138.879 165 136.254 165ZM63.418 165C60.7932 165 58.1685 164.344 55.5438 163.033C53.1378 161.722 51.0599 159.974 49.3101 157.789C47.779 155.385 47.0135 152.872 47.0135 150.249C47.0135 148.064 47.4509 146.097 48.3258 144.349C49.2007 142.382 50.6225 140.525 52.591 138.777C54.1221 137.029 56.3093 135.171 59.1528 133.204C62.215 131.238 65.3865 129.052 68.6674 126.648C72.167 124.245 75.4479 121.732 78.5101 119.109L86.7124 111.898L94.5865 118.454L89.6652 127.304C86.8217 132.33 84.197 137.903 81.791 144.021C79.385 149.922 77.3071 154.401 75.5573 157.461C73.37 162.487 69.3236 165 63.418 165ZM41.1079 101.736C36.952 101.518 33.5618 100.097 30.9371 97.4751C28.3123 94.8527 27 91.4656 27 87.3135C27 82.943 28.3124 79.1188 30.9371 75.8409C33.7805 72.5629 37.4989 70.924 42.0921 70.924C45.8105 70.924 49.3101 71.9074 52.591 73.8741C55.8719 75.8409 59.3715 78.2447 63.0899 81.0855C66.8082 83.7078 71.1828 86.2209 76.2135 88.6247L86.0562 92.886L83.1034 103.048L72.9326 101.736C67.4644 101.081 61.6682 101.081 55.5438 101.736C49.6382 102.173 44.8262 102.173 41.1079 101.736ZM94.5865 86.0024L93.2741 75.8409C92.618 71.6889 91.5243 67.6461 89.9933 63.7126C88.6809 59.5606 87.4779 55.6271 86.3843 51.9121C85.2906 47.9786 84.7438 44.7007 84.7438 42.0784C84.7438 38.3634 85.9468 34.9763 88.3528 31.9169C90.7588 28.8575 94.6959 27.2185 100.164 27C105.632 27.2186 109.569 28.8575 111.975 31.9169C114.381 34.9763 115.584 38.3634 115.584 42.0784C115.584 44.7007 114.928 47.9786 113.616 51.9121C112.522 55.6271 111.21 59.5606 109.679 63.7126C108.366 67.6461 107.382 71.6889 106.726 75.8409L105.085 86.0024L94.5865 86.0024ZM158.892 101.736C154.955 102.173 150.034 102.173 144.128 101.736C138.441 101.081 132.645 101.081 126.739 101.736L116.897 103.048L113.944 92.886L123.458 88.6247C128.927 86.2209 133.52 83.7079 137.238 81.0855C141.175 78.2447 144.675 75.8409 147.737 73.8741C151.018 71.9074 154.408 70.924 157.908 70.924C162.501 70.924 166.11 72.6722 168.735 76.1687C171.578 79.4466 173 83.2708 173 87.6413C173 91.5748 171.688 94.8527 169.063 97.4751C166.438 100.097 163.048 101.518 158.892 101.736Z" fill="#222222"/>
</svg>
